<svg width="49" height="12" viewBox="0 0 49 12" fill="none" xmlns="http://www.w3.org/2000/svg">
    <mask id="path-1-outside-1_5_13" maskUnits="userSpaceOnUse" x="0" y="0" width="49" height="12" fill="black">
        <rect fill="white" width="49" height="12"/>
        <path d="M2.728 7.54C2.728 8.236 3.024 8.584 3.616 8.584C4.264 8.584 4.7 8.36 4.924 7.912C5.004 7.752 5.044 7.548 5.044 7.3C5.044 7.044 4.984 6.808 4.864 6.592C4.664 6.248 4.32 5.868 3.832 5.452C3.024 4.764 2.62 4.052 2.62 3.316C2.62 2.572 2.852 2 3.316 1.6C3.78 1.2 4.312 1 4.912 1C5.512 1 5.988 1.152 6.34 1.456C6.692 1.76 6.868 2.216 6.868 2.824C6.868 3.224 6.732 3.572 6.46 3.868C6.196 4.164 5.844 4.348 5.404 4.42C5.604 4.588 5.804 4.76 6.004 4.936C6.196 5.112 6.372 5.304 6.532 5.512C6.884 5.984 7.06 6.548 7.06 7.204C7.06 7.66 6.952 8.072 6.736 8.44C6.528 8.808 6.252 9.12 5.908 9.376C5.572 9.624 5.192 9.816 4.768 9.952C4.344 10.088 3.948 10.156 3.58 10.156C2.796 10.156 2.188 9.976 1.756 9.616C1.252 9.208 1 8.62 1 7.852C1 7.348 1.164 6.86 1.492 6.388C1.82 5.916 2.168 5.68 2.536 5.68C2.824 5.68 2.968 5.768 2.968 5.944C2.968 6.2 2.928 6.456 2.848 6.712C2.768 6.96 2.728 7.236 2.728 7.54ZM5.056 4.132C5.512 3.676 5.74 3.2 5.74 2.704C5.74 2.552 5.66 2.424 5.5 2.32C5.324 2.224 5.14 2.176 4.948 2.176C4.516 2.176 4.204 2.316 4.012 2.596C4.108 2.94 4.248 3.232 4.432 3.472C4.624 3.712 4.832 3.932 5.056 4.132Z"/>
        <path d="M12.7517 9.052C12.1198 9.796 11.3598 10.168 10.4718 10.168C9.59175 10.168 8.93175 9.944 8.49175 9.496C8.05175 9.04 7.83575 8.476 7.84375 7.804C7.83575 6.852 8.13575 6.032 8.74375 5.344C9.35175 4.656 10.1478 4.312 11.1318 4.312C11.5798 4.312 11.9397 4.368 12.2118 4.48C12.6837 4.672 12.9198 4.852 12.9198 5.02C12.9198 5.148 12.5877 5.216 11.9237 5.224C11.2678 5.224 10.7157 5.452 10.2677 5.908C9.82775 6.356 9.60775 6.924 9.60775 7.612C9.60775 7.972 9.71175 8.276 9.91975 8.524C10.1358 8.764 10.4357 8.884 10.8197 8.884C11.2118 8.884 11.5358 8.804 11.7917 8.644C11.2238 8.26 10.9398 7.704 10.9398 6.976C10.9318 6.592 11.0677 6.244 11.3477 5.932C11.6357 5.612 11.9998 5.452 12.4398 5.452C12.8878 5.444 13.2078 5.564 13.3998 5.812C13.5918 6.06 13.6877 6.38 13.6877 6.772C13.6877 7.156 13.5957 7.564 13.4117 7.996H13.4838C13.8358 7.988 14.1398 7.864 14.3958 7.624C14.4917 7.528 14.5717 7.444 14.6357 7.372C14.7077 7.3 14.7798 7.264 14.8518 7.264C14.9638 7.264 15.0198 7.396 15.0198 7.66C15.0198 8.148 14.8758 8.516 14.5878 8.764C14.2998 9.004 13.9798 9.124 13.6278 9.124C13.2838 9.124 12.9918 9.1 12.7517 9.052ZM12.6438 7.66C12.7798 7.372 12.8478 7.092 12.8478 6.82C12.8478 6.548 12.7597 6.412 12.5837 6.412C12.5117 6.412 12.4518 6.464 12.4038 6.568C12.3558 6.672 12.3317 6.772 12.3317 6.868C12.3317 7.188 12.4358 7.452 12.6438 7.66Z"/>
        <path d="M17.9234 7.444C18.1394 8.3 18.5034 8.728 19.0154 8.728C19.2634 8.728 19.4874 8.652 19.6874 8.5C19.8874 8.348 20.0674 8.184 20.2274 8.008C20.3874 7.824 20.5274 7.656 20.6474 7.504C20.7674 7.352 20.8794 7.276 20.9834 7.276C21.0874 7.276 21.1394 7.412 21.1394 7.684C21.1394 8.252 20.8754 8.8 20.3474 9.328C19.8194 9.856 19.2274 10.116 18.5714 10.108C17.9234 10.108 17.3434 9.536 16.8314 8.392C16.6874 8.072 16.5514 7.748 16.4234 7.42L16.3394 9.064C16.3394 9.216 16.3314 9.368 16.3154 9.52C16.2994 9.664 16.2314 9.784 16.1114 9.88C15.7994 10.128 15.4834 10.252 15.1634 10.252C14.7874 10.252 14.5994 9.864 14.5994 9.088C14.5994 7.968 14.7314 6.796 14.9954 5.572C15.2594 4.348 15.5154 3.428 15.7634 2.812C16.0194 2.188 16.2154 1.772 16.3514 1.564C16.4954 1.356 16.6074 1.228 16.6874 1.18C16.7674 1.132 16.8554 1.108 16.9514 1.108C17.0554 1.108 17.1634 1.16 17.2754 1.264C17.3874 1.36 17.5074 1.512 17.6354 1.72C17.7634 1.92 17.8274 2.12 17.8274 2.32C17.8354 2.512 17.8034 2.704 17.7314 2.896C17.6674 3.08 17.5794 3.264 17.4674 3.448C17.3554 3.624 17.2314 3.808 17.0954 4C16.9594 4.184 16.8234 4.384 16.6874 4.6L16.5674 5.608C16.8474 5.024 17.2594 4.632 17.8034 4.432C17.9954 4.36 18.2194 4.324 18.4754 4.324C18.9874 4.324 19.3794 4.448 19.6514 4.696C19.9234 4.936 20.0594 5.292 20.0594 5.764C20.0594 6.236 19.8234 6.636 19.3514 6.964C18.8794 7.292 18.4034 7.452 17.9234 7.444ZM18.3794 6.04C18.3794 5.752 18.2154 5.608 17.8874 5.608C17.5594 5.608 17.2034 5.924 16.8194 6.556C16.7074 6.74 16.6114 6.928 16.5314 7.12C17.3634 7.072 17.9314 6.848 18.2354 6.448C18.3314 6.32 18.3794 6.184 18.3794 6.04Z"/>
        <path d="M25.3846 9.052C24.7526 9.796 23.9926 10.168 23.1046 10.168C22.2246 10.168 21.5646 9.944 21.1246 9.496C20.6846 9.04 20.4686 8.476 20.4766 7.804C20.4686 6.852 20.7686 6.032 21.3766 5.344C21.9846 4.656 22.7806 4.312 23.7646 4.312C24.2126 4.312 24.5726 4.368 24.8446 4.48C25.3166 4.672 25.5526 4.852 25.5526 5.02C25.5526 5.148 25.2206 5.216 24.5566 5.224C23.9006 5.224 23.3486 5.452 22.9006 5.908C22.4606 6.356 22.2406 6.924 22.2406 7.612C22.2406 7.972 22.3446 8.276 22.5526 8.524C22.7686 8.764 23.0686 8.884 23.4526 8.884C23.8446 8.884 24.1686 8.804 24.4246 8.644C23.8566 8.26 23.5726 7.704 23.5726 6.976C23.5646 6.592 23.7006 6.244 23.9806 5.932C24.2686 5.612 24.6326 5.452 25.0726 5.452C25.5206 5.444 25.8406 5.564 26.0326 5.812C26.2246 6.06 26.3206 6.38 26.3206 6.772C26.3206 7.156 26.2286 7.564 26.0446 7.996H26.1166C26.4686 7.988 26.7726 7.864 27.0286 7.624C27.1246 7.528 27.2046 7.444 27.2686 7.372C27.3406 7.3 27.4126 7.264 27.4846 7.264C27.5966 7.264 27.6526 7.396 27.6526 7.66C27.6526 8.148 27.5086 8.516 27.2206 8.764C26.9326 9.004 26.6126 9.124 26.2606 9.124C25.9166 9.124 25.6246 9.1 25.3846 9.052ZM25.2766 7.66C25.4126 7.372 25.4806 7.092 25.4806 6.82C25.4806 6.548 25.3926 6.412 25.2166 6.412C25.1446 6.412 25.0846 6.464 25.0366 6.568C24.9886 6.672 24.9646 6.772 24.9646 6.868C24.9646 7.188 25.0686 7.452 25.2766 7.66Z"/>
        <path d="M28.0602 4.432C27.4682 4.176 27.1722 3.928 27.1722 3.688C27.1722 3.56 27.2242 3.5 27.3282 3.508C27.4722 3.508 27.6362 3.544 27.8202 3.616C28.0042 3.68 28.1922 3.732 28.3842 3.772C29.0402 2.532 29.7842 1.72 30.6162 1.336C30.8962 1.208 31.1762 1.14 31.4562 1.132C32.0082 1.132 32.4282 1.268 32.7162 1.54C33.0122 1.804 33.1602 2.128 33.1602 2.512C33.1602 3.2 32.7882 3.732 32.0442 4.108C31.4362 4.412 30.6082 4.6 29.5602 4.672C29.1842 5.6 28.9962 6.596 28.9962 7.66C28.9962 8.452 29.1802 8.912 29.5482 9.04C29.8042 9.128 29.9962 9.132 30.1242 9.052C30.2522 8.964 30.3522 8.852 30.4242 8.716C30.4962 8.572 30.5322 8.364 30.5322 8.092C30.5402 7.82 30.4642 7.592 30.3042 7.408C30.1522 7.216 30.0042 7.04 29.8602 6.88C29.9322 6.616 30.0362 6.396 30.1722 6.22C30.4282 5.876 30.6482 5.704 30.8322 5.704C31.0162 5.704 31.1642 5.768 31.2762 5.896C31.3962 6.024 31.4922 6.184 31.5642 6.376C31.6362 6.568 31.6922 6.776 31.7322 7C31.7802 7.224 31.8322 7.432 31.8882 7.624C31.9442 7.816 32.0122 7.976 32.0922 8.104C32.1802 8.232 32.2922 8.296 32.4282 8.296C32.5722 8.296 32.7002 8.244 32.8122 8.14C32.9242 8.028 33.0242 7.908 33.1122 7.78C33.2002 7.652 33.2802 7.536 33.3522 7.432C33.4242 7.32 33.4962 7.264 33.5682 7.264C33.6482 7.264 33.7242 7.328 33.7962 7.456C33.8762 7.584 33.9162 7.704 33.9162 7.816C33.9162 8.072 33.7882 8.376 33.5322 8.728C33.2842 9.08 32.9642 9.256 32.5722 9.256C32.1802 9.248 31.8762 9.164 31.6602 9.004C31.5242 9.34 31.2922 9.62 30.9642 9.844C30.6362 10.068 30.1682 10.18 29.5602 10.18C28.9602 10.18 28.4442 10.024 28.0122 9.712C27.4922 9.336 27.2322 8.752 27.2322 7.96C27.2322 6.832 27.5082 5.656 28.0602 4.432ZM31.8402 2.728C31.8322 2.448 31.7282 2.308 31.5282 2.308C31.3362 2.308 31.0842 2.456 30.7722 2.752C30.4602 3.048 30.1602 3.46 29.8722 3.988C30.7442 3.836 31.3402 3.568 31.6602 3.184C31.7722 3.04 31.8322 2.888 31.8402 2.728Z"/>
        <path d="M40.6194 7.24C40.7634 7.24 40.8354 7.424 40.8354 7.792C40.8354 7.992 40.7514 8.236 40.5834 8.524C40.4154 8.804 40.1954 9.064 39.9234 9.304C39.6594 9.536 39.3634 9.728 39.0354 9.88C38.7074 10.032 38.3874 10.108 38.0754 10.108C37.6514 10.108 37.3674 9.736 37.2234 8.992C37.0154 9.336 36.7434 9.62 36.4074 9.844C36.0714 10.06 35.6194 10.168 35.0514 10.168C34.4914 10.168 34.0394 9.992 33.6954 9.64C33.3514 9.288 33.1834 8.86 33.1914 8.356C33.1914 6.996 33.6434 5.924 34.5474 5.14C34.9314 4.812 35.2874 4.596 35.6154 4.492C35.9514 4.388 36.3034 4.336 36.6714 4.336C37.0394 4.336 37.3394 4.4 37.5714 4.528C37.6834 4.296 37.8114 4.18 37.9554 4.18C38.2354 4.18 38.4994 4.304 38.7474 4.552C39.0034 4.792 39.1314 5.02 39.1314 5.236C39.0194 5.5 38.8554 5.816 38.6394 6.184C38.5754 6.552 38.5434 7.068 38.5434 7.732C38.5434 8.396 38.6274 8.728 38.7954 8.728C39.0034 8.728 39.5074 8.312 40.3074 7.48C40.4514 7.32 40.5554 7.24 40.6194 7.24ZM34.9554 7.96C34.9554 8.576 35.1834 8.884 35.6394 8.884C36.1274 8.876 36.5314 8.616 36.8514 8.104C36.9634 7.928 37.0554 7.712 37.1274 7.456C37.1274 6.56 37.2074 5.792 37.3674 5.152C36.7194 5.28 36.1554 5.592 35.6754 6.088C35.1954 6.584 34.9554 7.208 34.9554 7.96Z"/>
        <path d="M41.8318 4.084C42.1198 4.084 42.3918 4.36 42.6478 4.912C43.0238 4.52 43.4878 4.324 44.0398 4.324C44.5998 4.324 45.0198 4.448 45.2998 4.696C45.5798 4.936 45.7198 5.28 45.7198 5.728C45.7198 6.168 45.6598 6.616 45.5398 7.072C45.4278 7.528 45.3438 7.856 45.2878 8.056C45.2398 8.248 45.2158 8.408 45.2158 8.536C45.2158 8.664 45.2598 8.728 45.3478 8.728C45.4678 8.728 45.6158 8.652 45.7918 8.5C45.9678 8.348 46.1438 8.184 46.3198 8.008C46.4958 7.824 46.6558 7.656 46.7998 7.504C46.9518 7.352 47.0558 7.276 47.1118 7.276C47.2238 7.276 47.2798 7.412 47.2798 7.684C47.2798 8.244 47.0038 8.784 46.4518 9.304C45.5238 9.848 44.9318 10.12 44.6758 10.12C44.6518 10.12 44.6358 10.116 44.6278 10.108C43.9878 10.108 43.6678 9.596 43.6678 8.572C43.6678 8.132 43.7078 7.728 43.7878 7.36C43.8758 6.992 43.9398 6.724 43.9798 6.556C44.0198 6.388 44.0398 6.216 44.0398 6.04C44.0398 5.752 43.8718 5.608 43.5358 5.608C43.2078 5.608 42.8918 5.856 42.5878 6.352C42.2918 6.84 42.0918 7.348 41.9878 7.876V7.96C41.9878 8.232 42.0278 8.512 42.1078 8.8C42.1958 9.088 42.2398 9.288 42.2398 9.4C42.2398 9.672 41.8998 9.94 41.2198 10.204C41.1158 10.244 41.0238 10.264 40.9438 10.264C40.7438 10.264 40.6038 10.16 40.5238 9.952C40.4518 9.744 40.4158 9.42 40.4158 8.98C40.4158 7.844 40.4598 7.024 40.5478 6.52C40.6678 5.768 40.9398 5.068 41.3638 4.42C41.5078 4.196 41.6638 4.084 41.8318 4.084Z"/>
    </mask>
    <path d="M2.728 7.54C2.728 8.236 3.024 8.584 3.616 8.584C4.264 8.584 4.7 8.36 4.924 7.912C5.004 7.752 5.044 7.548 5.044 7.3C5.044 7.044 4.984 6.808 4.864 6.592C4.664 6.248 4.32 5.868 3.832 5.452C3.024 4.764 2.62 4.052 2.62 3.316C2.62 2.572 2.852 2 3.316 1.6C3.78 1.2 4.312 1 4.912 1C5.512 1 5.988 1.152 6.34 1.456C6.692 1.76 6.868 2.216 6.868 2.824C6.868 3.224 6.732 3.572 6.46 3.868C6.196 4.164 5.844 4.348 5.404 4.42C5.604 4.588 5.804 4.76 6.004 4.936C6.196 5.112 6.372 5.304 6.532 5.512C6.884 5.984 7.06 6.548 7.06 7.204C7.06 7.66 6.952 8.072 6.736 8.44C6.528 8.808 6.252 9.12 5.908 9.376C5.572 9.624 5.192 9.816 4.768 9.952C4.344 10.088 3.948 10.156 3.58 10.156C2.796 10.156 2.188 9.976 1.756 9.616C1.252 9.208 1 8.62 1 7.852C1 7.348 1.164 6.86 1.492 6.388C1.82 5.916 2.168 5.68 2.536 5.68C2.824 5.68 2.968 5.768 2.968 5.944C2.968 6.2 2.928 6.456 2.848 6.712C2.768 6.96 2.728 7.236 2.728 7.54ZM5.056 4.132C5.512 3.676 5.74 3.2 5.74 2.704C5.74 2.552 5.66 2.424 5.5 2.32C5.324 2.224 5.14 2.176 4.948 2.176C4.516 2.176 4.204 2.316 4.012 2.596C4.108 2.94 4.248 3.232 4.432 3.472C4.624 3.712 4.832 3.932 5.056 4.132Z" fill="white"/>
    <path d="M12.7517 9.052C12.1198 9.796 11.3598 10.168 10.4718 10.168C9.59175 10.168 8.93175 9.944 8.49175 9.496C8.05175 9.04 7.83575 8.476 7.84375 7.804C7.83575 6.852 8.13575 6.032 8.74375 5.344C9.35175 4.656 10.1478 4.312 11.1318 4.312C11.5798 4.312 11.9397 4.368 12.2118 4.48C12.6837 4.672 12.9198 4.852 12.9198 5.02C12.9198 5.148 12.5877 5.216 11.9237 5.224C11.2678 5.224 10.7157 5.452 10.2677 5.908C9.82775 6.356 9.60775 6.924 9.60775 7.612C9.60775 7.972 9.71175 8.276 9.91975 8.524C10.1358 8.764 10.4357 8.884 10.8197 8.884C11.2118 8.884 11.5358 8.804 11.7917 8.644C11.2238 8.26 10.9398 7.704 10.9398 6.976C10.9318 6.592 11.0677 6.244 11.3477 5.932C11.6357 5.612 11.9998 5.452 12.4398 5.452C12.8878 5.444 13.2078 5.564 13.3998 5.812C13.5918 6.06 13.6877 6.38 13.6877 6.772C13.6877 7.156 13.5957 7.564 13.4117 7.996H13.4838C13.8358 7.988 14.1398 7.864 14.3958 7.624C14.4917 7.528 14.5717 7.444 14.6357 7.372C14.7077 7.3 14.7798 7.264 14.8518 7.264C14.9638 7.264 15.0198 7.396 15.0198 7.66C15.0198 8.148 14.8758 8.516 14.5878 8.764C14.2998 9.004 13.9798 9.124 13.6278 9.124C13.2838 9.124 12.9918 9.1 12.7517 9.052ZM12.6438 7.66C12.7798 7.372 12.8478 7.092 12.8478 6.82C12.8478 6.548 12.7597 6.412 12.5837 6.412C12.5117 6.412 12.4518 6.464 12.4038 6.568C12.3558 6.672 12.3317 6.772 12.3317 6.868C12.3317 7.188 12.4358 7.452 12.6438 7.66Z" fill="white"/>
    <path d="M17.9234 7.444C18.1394 8.3 18.5034 8.728 19.0154 8.728C19.2634 8.728 19.4874 8.652 19.6874 8.5C19.8874 8.348 20.0674 8.184 20.2274 8.008C20.3874 7.824 20.5274 7.656 20.6474 7.504C20.7674 7.352 20.8794 7.276 20.9834 7.276C21.0874 7.276 21.1394 7.412 21.1394 7.684C21.1394 8.252 20.8754 8.8 20.3474 9.328C19.8194 9.856 19.2274 10.116 18.5714 10.108C17.9234 10.108 17.3434 9.536 16.8314 8.392C16.6874 8.072 16.5514 7.748 16.4234 7.42L16.3394 9.064C16.3394 9.216 16.3314 9.368 16.3154 9.52C16.2994 9.664 16.2314 9.784 16.1114 9.88C15.7994 10.128 15.4834 10.252 15.1634 10.252C14.7874 10.252 14.5994 9.864 14.5994 9.088C14.5994 7.968 14.7314 6.796 14.9954 5.572C15.2594 4.348 15.5154 3.428 15.7634 2.812C16.0194 2.188 16.2154 1.772 16.3514 1.564C16.4954 1.356 16.6074 1.228 16.6874 1.18C16.7674 1.132 16.8554 1.108 16.9514 1.108C17.0554 1.108 17.1634 1.16 17.2754 1.264C17.3874 1.36 17.5074 1.512 17.6354 1.72C17.7634 1.92 17.8274 2.12 17.8274 2.32C17.8354 2.512 17.8034 2.704 17.7314 2.896C17.6674 3.08 17.5794 3.264 17.4674 3.448C17.3554 3.624 17.2314 3.808 17.0954 4C16.9594 4.184 16.8234 4.384 16.6874 4.6L16.5674 5.608C16.8474 5.024 17.2594 4.632 17.8034 4.432C17.9954 4.36 18.2194 4.324 18.4754 4.324C18.9874 4.324 19.3794 4.448 19.6514 4.696C19.9234 4.936 20.0594 5.292 20.0594 5.764C20.0594 6.236 19.8234 6.636 19.3514 6.964C18.8794 7.292 18.4034 7.452 17.9234 7.444ZM18.3794 6.04C18.3794 5.752 18.2154 5.608 17.8874 5.608C17.5594 5.608 17.2034 5.924 16.8194 6.556C16.7074 6.74 16.6114 6.928 16.5314 7.12C17.3634 7.072 17.9314 6.848 18.2354 6.448C18.3314 6.32 18.3794 6.184 18.3794 6.04Z" fill="white"/>
    <path d="M25.3846 9.052C24.7526 9.796 23.9926 10.168 23.1046 10.168C22.2246 10.168 21.5646 9.944 21.1246 9.496C20.6846 9.04 20.4686 8.476 20.4766 7.804C20.4686 6.852 20.7686 6.032 21.3766 5.344C21.9846 4.656 22.7806 4.312 23.7646 4.312C24.2126 4.312 24.5726 4.368 24.8446 4.48C25.3166 4.672 25.5526 4.852 25.5526 5.02C25.5526 5.148 25.2206 5.216 24.5566 5.224C23.9006 5.224 23.3486 5.452 22.9006 5.908C22.4606 6.356 22.2406 6.924 22.2406 7.612C22.2406 7.972 22.3446 8.276 22.5526 8.524C22.7686 8.764 23.0686 8.884 23.4526 8.884C23.8446 8.884 24.1686 8.804 24.4246 8.644C23.8566 8.26 23.5726 7.704 23.5726 6.976C23.5646 6.592 23.7006 6.244 23.9806 5.932C24.2686 5.612 24.6326 5.452 25.0726 5.452C25.5206 5.444 25.8406 5.564 26.0326 5.812C26.2246 6.06 26.3206 6.38 26.3206 6.772C26.3206 7.156 26.2286 7.564 26.0446 7.996H26.1166C26.4686 7.988 26.7726 7.864 27.0286 7.624C27.1246 7.528 27.2046 7.444 27.2686 7.372C27.3406 7.3 27.4126 7.264 27.4846 7.264C27.5966 7.264 27.6526 7.396 27.6526 7.66C27.6526 8.148 27.5086 8.516 27.2206 8.764C26.9326 9.004 26.6126 9.124 26.2606 9.124C25.9166 9.124 25.6246 9.1 25.3846 9.052ZM25.2766 7.66C25.4126 7.372 25.4806 7.092 25.4806 6.82C25.4806 6.548 25.3926 6.412 25.2166 6.412C25.1446 6.412 25.0846 6.464 25.0366 6.568C24.9886 6.672 24.9646 6.772 24.9646 6.868C24.9646 7.188 25.0686 7.452 25.2766 7.66Z" fill="white"/>
    <path d="M28.0602 4.432C27.4682 4.176 27.1722 3.928 27.1722 3.688C27.1722 3.56 27.2242 3.5 27.3282 3.508C27.4722 3.508 27.6362 3.544 27.8202 3.616C28.0042 3.68 28.1922 3.732 28.3842 3.772C29.0402 2.532 29.7842 1.72 30.6162 1.336C30.8962 1.208 31.1762 1.14 31.4562 1.132C32.0082 1.132 32.4282 1.268 32.7162 1.54C33.0122 1.804 33.1602 2.128 33.1602 2.512C33.1602 3.2 32.7882 3.732 32.0442 4.108C31.4362 4.412 30.6082 4.6 29.5602 4.672C29.1842 5.6 28.9962 6.596 28.9962 7.66C28.9962 8.452 29.1802 8.912 29.5482 9.04C29.8042 9.128 29.9962 9.132 30.1242 9.052C30.2522 8.964 30.3522 8.852 30.4242 8.716C30.4962 8.572 30.5322 8.364 30.5322 8.092C30.5402 7.82 30.4642 7.592 30.3042 7.408C30.1522 7.216 30.0042 7.04 29.8602 6.88C29.9322 6.616 30.0362 6.396 30.1722 6.22C30.4282 5.876 30.6482 5.704 30.8322 5.704C31.0162 5.704 31.1642 5.768 31.2762 5.896C31.3962 6.024 31.4922 6.184 31.5642 6.376C31.6362 6.568 31.6922 6.776 31.7322 7C31.7802 7.224 31.8322 7.432 31.8882 7.624C31.9442 7.816 32.0122 7.976 32.0922 8.104C32.1802 8.232 32.2922 8.296 32.4282 8.296C32.5722 8.296 32.7002 8.244 32.8122 8.14C32.9242 8.028 33.0242 7.908 33.1122 7.78C33.2002 7.652 33.2802 7.536 33.3522 7.432C33.4242 7.32 33.4962 7.264 33.5682 7.264C33.6482 7.264 33.7242 7.328 33.7962 7.456C33.8762 7.584 33.9162 7.704 33.9162 7.816C33.9162 8.072 33.7882 8.376 33.5322 8.728C33.2842 9.08 32.9642 9.256 32.5722 9.256C32.1802 9.248 31.8762 9.164 31.6602 9.004C31.5242 9.34 31.2922 9.62 30.9642 9.844C30.6362 10.068 30.1682 10.18 29.5602 10.18C28.9602 10.18 28.4442 10.024 28.0122 9.712C27.4922 9.336 27.2322 8.752 27.2322 7.96C27.2322 6.832 27.5082 5.656 28.0602 4.432ZM31.8402 2.728C31.8322 2.448 31.7282 2.308 31.5282 2.308C31.3362 2.308 31.0842 2.456 30.7722 2.752C30.4602 3.048 30.1602 3.46 29.8722 3.988C30.7442 3.836 31.3402 3.568 31.6602 3.184C31.7722 3.04 31.8322 2.888 31.8402 2.728Z" fill="white"/>
    <path d="M40.6194 7.24C40.7634 7.24 40.8354 7.424 40.8354 7.792C40.8354 7.992 40.7514 8.236 40.5834 8.524C40.4154 8.804 40.1954 9.064 39.9234 9.304C39.6594 9.536 39.3634 9.728 39.0354 9.88C38.7074 10.032 38.3874 10.108 38.0754 10.108C37.6514 10.108 37.3674 9.736 37.2234 8.992C37.0154 9.336 36.7434 9.62 36.4074 9.844C36.0714 10.06 35.6194 10.168 35.0514 10.168C34.4914 10.168 34.0394 9.992 33.6954 9.64C33.3514 9.288 33.1834 8.86 33.1914 8.356C33.1914 6.996 33.6434 5.924 34.5474 5.14C34.9314 4.812 35.2874 4.596 35.6154 4.492C35.9514 4.388 36.3034 4.336 36.6714 4.336C37.0394 4.336 37.3394 4.4 37.5714 4.528C37.6834 4.296 37.8114 4.18 37.9554 4.18C38.2354 4.18 38.4994 4.304 38.7474 4.552C39.0034 4.792 39.1314 5.02 39.1314 5.236C39.0194 5.5 38.8554 5.816 38.6394 6.184C38.5754 6.552 38.5434 7.068 38.5434 7.732C38.5434 8.396 38.6274 8.728 38.7954 8.728C39.0034 8.728 39.5074 8.312 40.3074 7.48C40.4514 7.32 40.5554 7.24 40.6194 7.24ZM34.9554 7.96C34.9554 8.576 35.1834 8.884 35.6394 8.884C36.1274 8.876 36.5314 8.616 36.8514 8.104C36.9634 7.928 37.0554 7.712 37.1274 7.456C37.1274 6.56 37.2074 5.792 37.3674 5.152C36.7194 5.28 36.1554 5.592 35.6754 6.088C35.1954 6.584 34.9554 7.208 34.9554 7.96Z" fill="white"/>
    <path d="M41.8318 4.084C42.1198 4.084 42.3918 4.36 42.6478 4.912C43.0238 4.52 43.4878 4.324 44.0398 4.324C44.5998 4.324 45.0198 4.448 45.2998 4.696C45.5798 4.936 45.7198 5.28 45.7198 5.728C45.7198 6.168 45.6598 6.616 45.5398 7.072C45.4278 7.528 45.3438 7.856 45.2878 8.056C45.2398 8.248 45.2158 8.408 45.2158 8.536C45.2158 8.664 45.2598 8.728 45.3478 8.728C45.4678 8.728 45.6158 8.652 45.7918 8.5C45.9678 8.348 46.1438 8.184 46.3198 8.008C46.4958 7.824 46.6558 7.656 46.7998 7.504C46.9518 7.352 47.0558 7.276 47.1118 7.276C47.2238 7.276 47.2798 7.412 47.2798 7.684C47.2798 8.244 47.0038 8.784 46.4518 9.304C45.5238 9.848 44.9318 10.12 44.6758 10.12C44.6518 10.12 44.6358 10.116 44.6278 10.108C43.9878 10.108 43.6678 9.596 43.6678 8.572C43.6678 8.132 43.7078 7.728 43.7878 7.36C43.8758 6.992 43.9398 6.724 43.9798 6.556C44.0198 6.388 44.0398 6.216 44.0398 6.04C44.0398 5.752 43.8718 5.608 43.5358 5.608C43.2078 5.608 42.8918 5.856 42.5878 6.352C42.2918 6.84 42.0918 7.348 41.9878 7.876V7.96C41.9878 8.232 42.0278 8.512 42.1078 8.8C42.1958 9.088 42.2398 9.288 42.2398 9.4C42.2398 9.672 41.8998 9.94 41.2198 10.204C41.1158 10.244 41.0238 10.264 40.9438 10.264C40.7438 10.264 40.6038 10.16 40.5238 9.952C40.4518 9.744 40.4158 9.42 40.4158 8.98C40.4158 7.844 40.4598 7.024 40.5478 6.52C40.6678 5.768 40.9398 5.068 41.3638 4.42C41.5078 4.196 41.6638 4.084 41.8318 4.084Z" fill="white"/>
    <path d="M2.728 7.54C2.728 8.236 3.024 8.584 3.616 8.584C4.264 8.584 4.7 8.36 4.924 7.912C5.004 7.752 5.044 7.548 5.044 7.3C5.044 7.044 4.984 6.808 4.864 6.592C4.664 6.248 4.32 5.868 3.832 5.452C3.024 4.764 2.62 4.052 2.62 3.316C2.62 2.572 2.852 2 3.316 1.6C3.78 1.2 4.312 1 4.912 1C5.512 1 5.988 1.152 6.34 1.456C6.692 1.76 6.868 2.216 6.868 2.824C6.868 3.224 6.732 3.572 6.46 3.868C6.196 4.164 5.844 4.348 5.404 4.42C5.604 4.588 5.804 4.76 6.004 4.936C6.196 5.112 6.372 5.304 6.532 5.512C6.884 5.984 7.06 6.548 7.06 7.204C7.06 7.66 6.952 8.072 6.736 8.44C6.528 8.808 6.252 9.12 5.908 9.376C5.572 9.624 5.192 9.816 4.768 9.952C4.344 10.088 3.948 10.156 3.58 10.156C2.796 10.156 2.188 9.976 1.756 9.616C1.252 9.208 1 8.62 1 7.852C1 7.348 1.164 6.86 1.492 6.388C1.82 5.916 2.168 5.68 2.536 5.68C2.824 5.68 2.968 5.768 2.968 5.944C2.968 6.2 2.928 6.456 2.848 6.712C2.768 6.96 2.728 7.236 2.728 7.54ZM5.056 4.132C5.512 3.676 5.74 3.2 5.74 2.704C5.74 2.552 5.66 2.424 5.5 2.32C5.324 2.224 5.14 2.176 4.948 2.176C4.516 2.176 4.204 2.316 4.012 2.596C4.108 2.94 4.248 3.232 4.432 3.472C4.624 3.712 4.832 3.932 5.056 4.132Z" stroke="white" stroke-width="2" mask="url(#path-1-outside-1_5_13)"/>
    <path d="M12.7517 9.052C12.1198 9.796 11.3598 10.168 10.4718 10.168C9.59175 10.168 8.93175 9.944 8.49175 9.496C8.05175 9.04 7.83575 8.476 7.84375 7.804C7.83575 6.852 8.13575 6.032 8.74375 5.344C9.35175 4.656 10.1478 4.312 11.1318 4.312C11.5798 4.312 11.9397 4.368 12.2118 4.48C12.6837 4.672 12.9198 4.852 12.9198 5.02C12.9198 5.148 12.5877 5.216 11.9237 5.224C11.2678 5.224 10.7157 5.452 10.2677 5.908C9.82775 6.356 9.60775 6.924 9.60775 7.612C9.60775 7.972 9.71175 8.276 9.91975 8.524C10.1358 8.764 10.4357 8.884 10.8197 8.884C11.2118 8.884 11.5358 8.804 11.7917 8.644C11.2238 8.26 10.9398 7.704 10.9398 6.976C10.9318 6.592 11.0677 6.244 11.3477 5.932C11.6357 5.612 11.9998 5.452 12.4398 5.452C12.8878 5.444 13.2078 5.564 13.3998 5.812C13.5918 6.06 13.6877 6.38 13.6877 6.772C13.6877 7.156 13.5957 7.564 13.4117 7.996H13.4838C13.8358 7.988 14.1398 7.864 14.3958 7.624C14.4917 7.528 14.5717 7.444 14.6357 7.372C14.7077 7.3 14.7798 7.264 14.8518 7.264C14.9638 7.264 15.0198 7.396 15.0198 7.66C15.0198 8.148 14.8758 8.516 14.5878 8.764C14.2998 9.004 13.9798 9.124 13.6278 9.124C13.2838 9.124 12.9918 9.1 12.7517 9.052ZM12.6438 7.66C12.7798 7.372 12.8478 7.092 12.8478 6.82C12.8478 6.548 12.7597 6.412 12.5837 6.412C12.5117 6.412 12.4518 6.464 12.4038 6.568C12.3558 6.672 12.3317 6.772 12.3317 6.868C12.3317 7.188 12.4358 7.452 12.6438 7.66Z" stroke="white" stroke-width="2" mask="url(#path-1-outside-1_5_13)"/>
    <path d="M17.9234 7.444C18.1394 8.3 18.5034 8.728 19.0154 8.728C19.2634 8.728 19.4874 8.652 19.6874 8.5C19.8874 8.348 20.0674 8.184 20.2274 8.008C20.3874 7.824 20.5274 7.656 20.6474 7.504C20.7674 7.352 20.8794 7.276 20.9834 7.276C21.0874 7.276 21.1394 7.412 21.1394 7.684C21.1394 8.252 20.8754 8.8 20.3474 9.328C19.8194 9.856 19.2274 10.116 18.5714 10.108C17.9234 10.108 17.3434 9.536 16.8314 8.392C16.6874 8.072 16.5514 7.748 16.4234 7.42L16.3394 9.064C16.3394 9.216 16.3314 9.368 16.3154 9.52C16.2994 9.664 16.2314 9.784 16.1114 9.88C15.7994 10.128 15.4834 10.252 15.1634 10.252C14.7874 10.252 14.5994 9.864 14.5994 9.088C14.5994 7.968 14.7314 6.796 14.9954 5.572C15.2594 4.348 15.5154 3.428 15.7634 2.812C16.0194 2.188 16.2154 1.772 16.3514 1.564C16.4954 1.356 16.6074 1.228 16.6874 1.18C16.7674 1.132 16.8554 1.108 16.9514 1.108C17.0554 1.108 17.1634 1.16 17.2754 1.264C17.3874 1.36 17.5074 1.512 17.6354 1.72C17.7634 1.92 17.8274 2.12 17.8274 2.32C17.8354 2.512 17.8034 2.704 17.7314 2.896C17.6674 3.08 17.5794 3.264 17.4674 3.448C17.3554 3.624 17.2314 3.808 17.0954 4C16.9594 4.184 16.8234 4.384 16.6874 4.6L16.5674 5.608C16.8474 5.024 17.2594 4.632 17.8034 4.432C17.9954 4.36 18.2194 4.324 18.4754 4.324C18.9874 4.324 19.3794 4.448 19.6514 4.696C19.9234 4.936 20.0594 5.292 20.0594 5.764C20.0594 6.236 19.8234 6.636 19.3514 6.964C18.8794 7.292 18.4034 7.452 17.9234 7.444ZM18.3794 6.04C18.3794 5.752 18.2154 5.608 17.8874 5.608C17.5594 5.608 17.2034 5.924 16.8194 6.556C16.7074 6.74 16.6114 6.928 16.5314 7.12C17.3634 7.072 17.9314 6.848 18.2354 6.448C18.3314 6.32 18.3794 6.184 18.3794 6.04Z" stroke="white" stroke-width="2" mask="url(#path-1-outside-1_5_13)"/>
    <path d="M25.3846 9.052C24.7526 9.796 23.9926 10.168 23.1046 10.168C22.2246 10.168 21.5646 9.944 21.1246 9.496C20.6846 9.04 20.4686 8.476 20.4766 7.804C20.4686 6.852 20.7686 6.032 21.3766 5.344C21.9846 4.656 22.7806 4.312 23.7646 4.312C24.2126 4.312 24.5726 4.368 24.8446 4.48C25.3166 4.672 25.5526 4.852 25.5526 5.02C25.5526 5.148 25.2206 5.216 24.5566 5.224C23.9006 5.224 23.3486 5.452 22.9006 5.908C22.4606 6.356 22.2406 6.924 22.2406 7.612C22.2406 7.972 22.3446 8.276 22.5526 8.524C22.7686 8.764 23.0686 8.884 23.4526 8.884C23.8446 8.884 24.1686 8.804 24.4246 8.644C23.8566 8.26 23.5726 7.704 23.5726 6.976C23.5646 6.592 23.7006 6.244 23.9806 5.932C24.2686 5.612 24.6326 5.452 25.0726 5.452C25.5206 5.444 25.8406 5.564 26.0326 5.812C26.2246 6.06 26.3206 6.38 26.3206 6.772C26.3206 7.156 26.2286 7.564 26.0446 7.996H26.1166C26.4686 7.988 26.7726 7.864 27.0286 7.624C27.1246 7.528 27.2046 7.444 27.2686 7.372C27.3406 7.3 27.4126 7.264 27.4846 7.264C27.5966 7.264 27.6526 7.396 27.6526 7.66C27.6526 8.148 27.5086 8.516 27.2206 8.764C26.9326 9.004 26.6126 9.124 26.2606 9.124C25.9166 9.124 25.6246 9.1 25.3846 9.052ZM25.2766 7.66C25.4126 7.372 25.4806 7.092 25.4806 6.82C25.4806 6.548 25.3926 6.412 25.2166 6.412C25.1446 6.412 25.0846 6.464 25.0366 6.568C24.9886 6.672 24.9646 6.772 24.9646 6.868C24.9646 7.188 25.0686 7.452 25.2766 7.66Z" stroke="white" stroke-width="2" mask="url(#path-1-outside-1_5_13)"/>
    <path d="M28.0602 4.432C27.4682 4.176 27.1722 3.928 27.1722 3.688C27.1722 3.56 27.2242 3.5 27.3282 3.508C27.4722 3.508 27.6362 3.544 27.8202 3.616C28.0042 3.68 28.1922 3.732 28.3842 3.772C29.0402 2.532 29.7842 1.72 30.6162 1.336C30.8962 1.208 31.1762 1.14 31.4562 1.132C32.0082 1.132 32.4282 1.268 32.7162 1.54C33.0122 1.804 33.1602 2.128 33.1602 2.512C33.1602 3.2 32.7882 3.732 32.0442 4.108C31.4362 4.412 30.6082 4.6 29.5602 4.672C29.1842 5.6 28.9962 6.596 28.9962 7.66C28.9962 8.452 29.1802 8.912 29.5482 9.04C29.8042 9.128 29.9962 9.132 30.1242 9.052C30.2522 8.964 30.3522 8.852 30.4242 8.716C30.4962 8.572 30.5322 8.364 30.5322 8.092C30.5402 7.82 30.4642 7.592 30.3042 7.408C30.1522 7.216 30.0042 7.04 29.8602 6.88C29.9322 6.616 30.0362 6.396 30.1722 6.22C30.4282 5.876 30.6482 5.704 30.8322 5.704C31.0162 5.704 31.1642 5.768 31.2762 5.896C31.3962 6.024 31.4922 6.184 31.5642 6.376C31.6362 6.568 31.6922 6.776 31.7322 7C31.7802 7.224 31.8322 7.432 31.8882 7.624C31.9442 7.816 32.0122 7.976 32.0922 8.104C32.1802 8.232 32.2922 8.296 32.4282 8.296C32.5722 8.296 32.7002 8.244 32.8122 8.14C32.9242 8.028 33.0242 7.908 33.1122 7.78C33.2002 7.652 33.2802 7.536 33.3522 7.432C33.4242 7.32 33.4962 7.264 33.5682 7.264C33.6482 7.264 33.7242 7.328 33.7962 7.456C33.8762 7.584 33.9162 7.704 33.9162 7.816C33.9162 8.072 33.7882 8.376 33.5322 8.728C33.2842 9.08 32.9642 9.256 32.5722 9.256C32.1802 9.248 31.8762 9.164 31.6602 9.004C31.5242 9.34 31.2922 9.62 30.9642 9.844C30.6362 10.068 30.1682 10.18 29.5602 10.18C28.9602 10.18 28.4442 10.024 28.0122 9.712C27.4922 9.336 27.2322 8.752 27.2322 7.96C27.2322 6.832 27.5082 5.656 28.0602 4.432ZM31.8402 2.728C31.8322 2.448 31.7282 2.308 31.5282 2.308C31.3362 2.308 31.0842 2.456 30.7722 2.752C30.4602 3.048 30.1602 3.46 29.8722 3.988C30.7442 3.836 31.3402 3.568 31.6602 3.184C31.7722 3.04 31.8322 2.888 31.8402 2.728Z" stroke="white" stroke-width="2" mask="url(#path-1-outside-1_5_13)"/>
    <path d="M40.6194 7.24C40.7634 7.24 40.8354 7.424 40.8354 7.792C40.8354 7.992 40.7514 8.236 40.5834 8.524C40.4154 8.804 40.1954 9.064 39.9234 9.304C39.6594 9.536 39.3634 9.728 39.0354 9.88C38.7074 10.032 38.3874 10.108 38.0754 10.108C37.6514 10.108 37.3674 9.736 37.2234 8.992C37.0154 9.336 36.7434 9.62 36.4074 9.844C36.0714 10.06 35.6194 10.168 35.0514 10.168C34.4914 10.168 34.0394 9.992 33.6954 9.64C33.3514 9.288 33.1834 8.86 33.1914 8.356C33.1914 6.996 33.6434 5.924 34.5474 5.14C34.9314 4.812 35.2874 4.596 35.6154 4.492C35.9514 4.388 36.3034 4.336 36.6714 4.336C37.0394 4.336 37.3394 4.4 37.5714 4.528C37.6834 4.296 37.8114 4.18 37.9554 4.18C38.2354 4.18 38.4994 4.304 38.7474 4.552C39.0034 4.792 39.1314 5.02 39.1314 5.236C39.0194 5.5 38.8554 5.816 38.6394 6.184C38.5754 6.552 38.5434 7.068 38.5434 7.732C38.5434 8.396 38.6274 8.728 38.7954 8.728C39.0034 8.728 39.5074 8.312 40.3074 7.48C40.4514 7.32 40.5554 7.24 40.6194 7.24ZM34.9554 7.96C34.9554 8.576 35.1834 8.884 35.6394 8.884C36.1274 8.876 36.5314 8.616 36.8514 8.104C36.9634 7.928 37.0554 7.712 37.1274 7.456C37.1274 6.56 37.2074 5.792 37.3674 5.152C36.7194 5.28 36.1554 5.592 35.6754 6.088C35.1954 6.584 34.9554 7.208 34.9554 7.96Z" stroke="white" stroke-width="2" mask="url(#path-1-outside-1_5_13)"/>
    <path d="M41.8318 4.084C42.1198 4.084 42.3918 4.36 42.6478 4.912C43.0238 4.52 43.4878 4.324 44.0398 4.324C44.5998 4.324 45.0198 4.448 45.2998 4.696C45.5798 4.936 45.7198 5.28 45.7198 5.728C45.7198 6.168 45.6598 6.616 45.5398 7.072C45.4278 7.528 45.3438 7.856 45.2878 8.056C45.2398 8.248 45.2158 8.408 45.2158 8.536C45.2158 8.664 45.2598 8.728 45.3478 8.728C45.4678 8.728 45.6158 8.652 45.7918 8.5C45.9678 8.348 46.1438 8.184 46.3198 8.008C46.4958 7.824 46.6558 7.656 46.7998 7.504C46.9518 7.352 47.0558 7.276 47.1118 7.276C47.2238 7.276 47.2798 7.412 47.2798 7.684C47.2798 8.244 47.0038 8.784 46.4518 9.304C45.5238 9.848 44.9318 10.12 44.6758 10.12C44.6518 10.12 44.6358 10.116 44.6278 10.108C43.9878 10.108 43.6678 9.596 43.6678 8.572C43.6678 8.132 43.7078 7.728 43.7878 7.36C43.8758 6.992 43.9398 6.724 43.9798 6.556C44.0198 6.388 44.0398 6.216 44.0398 6.04C44.0398 5.752 43.8718 5.608 43.5358 5.608C43.2078 5.608 42.8918 5.856 42.5878 6.352C42.2918 6.84 42.0918 7.348 41.9878 7.876V7.96C41.9878 8.232 42.0278 8.512 42.1078 8.8C42.1958 9.088 42.2398 9.288 42.2398 9.4C42.2398 9.672 41.8998 9.94 41.2198 10.204C41.1158 10.244 41.0238 10.264 40.9438 10.264C40.7438 10.264 40.6038 10.16 40.5238 9.952C40.4518 9.744 40.4158 9.42 40.4158 8.98C40.4158 7.844 40.4598 7.024 40.5478 6.52C40.6678 5.768 40.9398 5.068 41.3638 4.42C41.5078 4.196 41.6638 4.084 41.8318 4.084Z" stroke="white" stroke-width="2" mask="url(#path-1-outside-1_5_13)"/>
    <path d="M2.728 7.54C2.728 8.236 3.024 8.584 3.616 8.584C4.264 8.584 4.7 8.36 4.924 7.912C5.004 7.752 5.044 7.548 5.044 7.3C5.044 7.044 4.984 6.808 4.864 6.592C4.664 6.248 4.32 5.868 3.832 5.452C3.024 4.764 2.62 4.052 2.62 3.316C2.62 2.572 2.852 2 3.316 1.6C3.78 1.2 4.312 1 4.912 1C5.512 1 5.988 1.152 6.34 1.456C6.692 1.76 6.868 2.216 6.868 2.824C6.868 3.224 6.732 3.572 6.46 3.868C6.196 4.164 5.844 4.348 5.404 4.42C5.604 4.588 5.804 4.76 6.004 4.936C6.196 5.112 6.372 5.304 6.532 5.512C6.884 5.984 7.06 6.548 7.06 7.204C7.06 7.66 6.952 8.072 6.736 8.44C6.528 8.808 6.252 9.12 5.908 9.376C5.572 9.624 5.192 9.816 4.768 9.952C4.344 10.088 3.948 10.156 3.58 10.156C2.796 10.156 2.188 9.976 1.756 9.616C1.252 9.208 1 8.62 1 7.852C1 7.348 1.164 6.86 1.492 6.388C1.82 5.916 2.168 5.68 2.536 5.68C2.824 5.68 2.968 5.768 2.968 5.944C2.968 6.2 2.928 6.456 2.848 6.712C2.768 6.96 2.728 7.236 2.728 7.54ZM5.056 4.132C5.512 3.676 5.74 3.2 5.74 2.704C5.74 2.552 5.66 2.424 5.5 2.32C5.324 2.224 5.14 2.176 4.948 2.176C4.516 2.176 4.204 2.316 4.012 2.596C4.108 2.94 4.248 3.232 4.432 3.472C4.624 3.712 4.832 3.932 5.056 4.132Z" fill="url(#paint0_linear_5_13)"/>
    <path d="M12.7517 9.052C12.1198 9.796 11.3598 10.168 10.4718 10.168C9.59175 10.168 8.93175 9.944 8.49175 9.496C8.05175 9.04 7.83575 8.476 7.84375 7.804C7.83575 6.852 8.13575 6.032 8.74375 5.344C9.35175 4.656 10.1478 4.312 11.1318 4.312C11.5798 4.312 11.9397 4.368 12.2118 4.48C12.6837 4.672 12.9198 4.852 12.9198 5.02C12.9198 5.148 12.5877 5.216 11.9237 5.224C11.2678 5.224 10.7157 5.452 10.2677 5.908C9.82775 6.356 9.60775 6.924 9.60775 7.612C9.60775 7.972 9.71175 8.276 9.91975 8.524C10.1358 8.764 10.4357 8.884 10.8197 8.884C11.2118 8.884 11.5358 8.804 11.7917 8.644C11.2238 8.26 10.9398 7.704 10.9398 6.976C10.9318 6.592 11.0677 6.244 11.3477 5.932C11.6357 5.612 11.9998 5.452 12.4398 5.452C12.8878 5.444 13.2078 5.564 13.3998 5.812C13.5918 6.06 13.6877 6.38 13.6877 6.772C13.6877 7.156 13.5957 7.564 13.4117 7.996H13.4838C13.8358 7.988 14.1398 7.864 14.3958 7.624C14.4917 7.528 14.5717 7.444 14.6357 7.372C14.7077 7.3 14.7798 7.264 14.8518 7.264C14.9638 7.264 15.0198 7.396 15.0198 7.66C15.0198 8.148 14.8758 8.516 14.5878 8.764C14.2998 9.004 13.9798 9.124 13.6278 9.124C13.2838 9.124 12.9918 9.1 12.7517 9.052ZM12.6438 7.66C12.7798 7.372 12.8478 7.092 12.8478 6.82C12.8478 6.548 12.7597 6.412 12.5837 6.412C12.5117 6.412 12.4518 6.464 12.4038 6.568C12.3558 6.672 12.3317 6.772 12.3317 6.868C12.3317 7.188 12.4358 7.452 12.6438 7.66Z" fill="url(#paint1_linear_5_13)"/>
    <path d="M17.9234 7.444C18.1394 8.3 18.5034 8.728 19.0154 8.728C19.2634 8.728 19.4874 8.652 19.6874 8.5C19.8874 8.348 20.0674 8.184 20.2274 8.008C20.3874 7.824 20.5274 7.656 20.6474 7.504C20.7674 7.352 20.8794 7.276 20.9834 7.276C21.0874 7.276 21.1394 7.412 21.1394 7.684C21.1394 8.252 20.8754 8.8 20.3474 9.328C19.8194 9.856 19.2274 10.116 18.5714 10.108C17.9234 10.108 17.3434 9.536 16.8314 8.392C16.6874 8.072 16.5514 7.748 16.4234 7.42L16.3394 9.064C16.3394 9.216 16.3314 9.368 16.3154 9.52C16.2994 9.664 16.2314 9.784 16.1114 9.88C15.7994 10.128 15.4834 10.252 15.1634 10.252C14.7874 10.252 14.5994 9.864 14.5994 9.088C14.5994 7.968 14.7314 6.796 14.9954 5.572C15.2594 4.348 15.5154 3.428 15.7634 2.812C16.0194 2.188 16.2154 1.772 16.3514 1.564C16.4954 1.356 16.6074 1.228 16.6874 1.18C16.7674 1.132 16.8554 1.108 16.9514 1.108C17.0554 1.108 17.1634 1.16 17.2754 1.264C17.3874 1.36 17.5074 1.512 17.6354 1.72C17.7634 1.92 17.8274 2.12 17.8274 2.32C17.8354 2.512 17.8034 2.704 17.7314 2.896C17.6674 3.08 17.5794 3.264 17.4674 3.448C17.3554 3.624 17.2314 3.808 17.0954 4C16.9594 4.184 16.8234 4.384 16.6874 4.6L16.5674 5.608C16.8474 5.024 17.2594 4.632 17.8034 4.432C17.9954 4.36 18.2194 4.324 18.4754 4.324C18.9874 4.324 19.3794 4.448 19.6514 4.696C19.9234 4.936 20.0594 5.292 20.0594 5.764C20.0594 6.236 19.8234 6.636 19.3514 6.964C18.8794 7.292 18.4034 7.452 17.9234 7.444ZM18.3794 6.04C18.3794 5.752 18.2154 5.608 17.8874 5.608C17.5594 5.608 17.2034 5.924 16.8194 6.556C16.7074 6.74 16.6114 6.928 16.5314 7.12C17.3634 7.072 17.9314 6.848 18.2354 6.448C18.3314 6.32 18.3794 6.184 18.3794 6.04Z" fill="url(#paint2_linear_5_13)"/>
    <path d="M25.3846 9.052C24.7526 9.796 23.9926 10.168 23.1046 10.168C22.2246 10.168 21.5646 9.944 21.1246 9.496C20.6846 9.04 20.4686 8.476 20.4766 7.804C20.4686 6.852 20.7686 6.032 21.3766 5.344C21.9846 4.656 22.7806 4.312 23.7646 4.312C24.2126 4.312 24.5726 4.368 24.8446 4.48C25.3166 4.672 25.5526 4.852 25.5526 5.02C25.5526 5.148 25.2206 5.216 24.5566 5.224C23.9006 5.224 23.3486 5.452 22.9006 5.908C22.4606 6.356 22.2406 6.924 22.2406 7.612C22.2406 7.972 22.3446 8.276 22.5526 8.524C22.7686 8.764 23.0686 8.884 23.4526 8.884C23.8446 8.884 24.1686 8.804 24.4246 8.644C23.8566 8.26 23.5726 7.704 23.5726 6.976C23.5646 6.592 23.7006 6.244 23.9806 5.932C24.2686 5.612 24.6326 5.452 25.0726 5.452C25.5206 5.444 25.8406 5.564 26.0326 5.812C26.2246 6.06 26.3206 6.38 26.3206 6.772C26.3206 7.156 26.2286 7.564 26.0446 7.996H26.1166C26.4686 7.988 26.7726 7.864 27.0286 7.624C27.1246 7.528 27.2046 7.444 27.2686 7.372C27.3406 7.3 27.4126 7.264 27.4846 7.264C27.5966 7.264 27.6526 7.396 27.6526 7.66C27.6526 8.148 27.5086 8.516 27.2206 8.764C26.9326 9.004 26.6126 9.124 26.2606 9.124C25.9166 9.124 25.6246 9.1 25.3846 9.052ZM25.2766 7.66C25.4126 7.372 25.4806 7.092 25.4806 6.82C25.4806 6.548 25.3926 6.412 25.2166 6.412C25.1446 6.412 25.0846 6.464 25.0366 6.568C24.9886 6.672 24.9646 6.772 24.9646 6.868C24.9646 7.188 25.0686 7.452 25.2766 7.66Z" fill="url(#paint3_linear_5_13)"/>
    <path d="M28.0602 4.432C27.4682 4.176 27.1722 3.928 27.1722 3.688C27.1722 3.56 27.2242 3.5 27.3282 3.508C27.4722 3.508 27.6362 3.544 27.8202 3.616C28.0042 3.68 28.1922 3.732 28.3842 3.772C29.0402 2.532 29.7842 1.72 30.6162 1.336C30.8962 1.208 31.1762 1.14 31.4562 1.132C32.0082 1.132 32.4282 1.268 32.7162 1.54C33.0122 1.804 33.1602 2.128 33.1602 2.512C33.1602 3.2 32.7882 3.732 32.0442 4.108C31.4362 4.412 30.6082 4.6 29.5602 4.672C29.1842 5.6 28.9962 6.596 28.9962 7.66C28.9962 8.452 29.1802 8.912 29.5482 9.04C29.8042 9.128 29.9962 9.132 30.1242 9.052C30.2522 8.964 30.3522 8.852 30.4242 8.716C30.4962 8.572 30.5322 8.364 30.5322 8.092C30.5402 7.82 30.4642 7.592 30.3042 7.408C30.1522 7.216 30.0042 7.04 29.8602 6.88C29.9322 6.616 30.0362 6.396 30.1722 6.22C30.4282 5.876 30.6482 5.704 30.8322 5.704C31.0162 5.704 31.1642 5.768 31.2762 5.896C31.3962 6.024 31.4922 6.184 31.5642 6.376C31.6362 6.568 31.6922 6.776 31.7322 7C31.7802 7.224 31.8322 7.432 31.8882 7.624C31.9442 7.816 32.0122 7.976 32.0922 8.104C32.1802 8.232 32.2922 8.296 32.4282 8.296C32.5722 8.296 32.7002 8.244 32.8122 8.14C32.9242 8.028 33.0242 7.908 33.1122 7.78C33.2002 7.652 33.2802 7.536 33.3522 7.432C33.4242 7.32 33.4962 7.264 33.5682 7.264C33.6482 7.264 33.7242 7.328 33.7962 7.456C33.8762 7.584 33.9162 7.704 33.9162 7.816C33.9162 8.072 33.7882 8.376 33.5322 8.728C33.2842 9.08 32.9642 9.256 32.5722 9.256C32.1802 9.248 31.8762 9.164 31.6602 9.004C31.5242 9.34 31.2922 9.62 30.9642 9.844C30.6362 10.068 30.1682 10.18 29.5602 10.18C28.9602 10.18 28.4442 10.024 28.0122 9.712C27.4922 9.336 27.2322 8.752 27.2322 7.96C27.2322 6.832 27.5082 5.656 28.0602 4.432ZM31.8402 2.728C31.8322 2.448 31.7282 2.308 31.5282 2.308C31.3362 2.308 31.0842 2.456 30.7722 2.752C30.4602 3.048 30.1602 3.46 29.8722 3.988C30.7442 3.836 31.3402 3.568 31.6602 3.184C31.7722 3.04 31.8322 2.888 31.8402 2.728Z" fill="url(#paint4_linear_5_13)"/>
    <path d="M40.6194 7.24C40.7634 7.24 40.8354 7.424 40.8354 7.792C40.8354 7.992 40.7514 8.236 40.5834 8.524C40.4154 8.804 40.1954 9.064 39.9234 9.304C39.6594 9.536 39.3634 9.728 39.0354 9.88C38.7074 10.032 38.3874 10.108 38.0754 10.108C37.6514 10.108 37.3674 9.736 37.2234 8.992C37.0154 9.336 36.7434 9.62 36.4074 9.844C36.0714 10.06 35.6194 10.168 35.0514 10.168C34.4914 10.168 34.0394 9.992 33.6954 9.64C33.3514 9.288 33.1834 8.86 33.1914 8.356C33.1914 6.996 33.6434 5.924 34.5474 5.14C34.9314 4.812 35.2874 4.596 35.6154 4.492C35.9514 4.388 36.3034 4.336 36.6714 4.336C37.0394 4.336 37.3394 4.4 37.5714 4.528C37.6834 4.296 37.8114 4.18 37.9554 4.18C38.2354 4.18 38.4994 4.304 38.7474 4.552C39.0034 4.792 39.1314 5.02 39.1314 5.236C39.0194 5.5 38.8554 5.816 38.6394 6.184C38.5754 6.552 38.5434 7.068 38.5434 7.732C38.5434 8.396 38.6274 8.728 38.7954 8.728C39.0034 8.728 39.5074 8.312 40.3074 7.48C40.4514 7.32 40.5554 7.24 40.6194 7.24ZM34.9554 7.96C34.9554 8.576 35.1834 8.884 35.6394 8.884C36.1274 8.876 36.5314 8.616 36.8514 8.104C36.9634 7.928 37.0554 7.712 37.1274 7.456C37.1274 6.56 37.2074 5.792 37.3674 5.152C36.7194 5.28 36.1554 5.592 35.6754 6.088C35.1954 6.584 34.9554 7.208 34.9554 7.96Z" fill="url(#paint5_linear_5_13)"/>
    <path d="M41.8318 4.084C42.1198 4.084 42.3918 4.36 42.6478 4.912C43.0238 4.52 43.4878 4.324 44.0398 4.324C44.5998 4.324 45.0198 4.448 45.2998 4.696C45.5798 4.936 45.7198 5.28 45.7198 5.728C45.7198 6.168 45.6598 6.616 45.5398 7.072C45.4278 7.528 45.3438 7.856 45.2878 8.056C45.2398 8.248 45.2158 8.408 45.2158 8.536C45.2158 8.664 45.2598 8.728 45.3478 8.728C45.4678 8.728 45.6158 8.652 45.7918 8.5C45.9678 8.348 46.1438 8.184 46.3198 8.008C46.4958 7.824 46.6558 7.656 46.7998 7.504C46.9518 7.352 47.0558 7.276 47.1118 7.276C47.2238 7.276 47.2798 7.412 47.2798 7.684C47.2798 8.244 47.0038 8.784 46.4518 9.304C45.5238 9.848 44.9318 10.12 44.6758 10.12C44.6518 10.12 44.6358 10.116 44.6278 10.108C43.9878 10.108 43.6678 9.596 43.6678 8.572C43.6678 8.132 43.7078 7.728 43.7878 7.36C43.8758 6.992 43.9398 6.724 43.9798 6.556C44.0198 6.388 44.0398 6.216 44.0398 6.04C44.0398 5.752 43.8718 5.608 43.5358 5.608C43.2078 5.608 42.8918 5.856 42.5878 6.352C42.2918 6.84 42.0918 7.348 41.9878 7.876V7.96C41.9878 8.232 42.0278 8.512 42.1078 8.8C42.1958 9.088 42.2398 9.288 42.2398 9.4C42.2398 9.672 41.8998 9.94 41.2198 10.204C41.1158 10.244 41.0238 10.264 40.9438 10.264C40.7438 10.264 40.6038 10.16 40.5238 9.952C40.4518 9.744 40.4158 9.42 40.4158 8.98C40.4158 7.844 40.4598 7.024 40.5478 6.52C40.6678 5.768 40.9398 5.068 41.3638 4.42C41.5078 4.196 41.6638 4.084 41.8318 4.084Z" fill="url(#paint6_linear_5_13)"/>
    <defs>
        <linearGradient id="paint0_linear_5_13" x1="23.7" y1="-1.92798" x2="23.7" y2="14.072" gradientUnits="userSpaceOnUse">
            <stop offset="0.28125" stop-color="#A4C263"/>
            <stop offset="1" stop-color="#93B44D"/>
        </linearGradient>
        <linearGradient id="paint1_linear_5_13" x1="23.7" y1="-1.92798" x2="23.7" y2="14.072" gradientUnits="userSpaceOnUse">
            <stop offset="0.28125" stop-color="#A4C263"/>
            <stop offset="1" stop-color="#93B44D"/>
        </linearGradient>
        <linearGradient id="paint2_linear_5_13" x1="23.7" y1="-1.92798" x2="23.7" y2="14.072" gradientUnits="userSpaceOnUse">
            <stop offset="0.28125" stop-color="#A4C263"/>
            <stop offset="1" stop-color="#93B44D"/>
        </linearGradient>
        <linearGradient id="paint3_linear_5_13" x1="23.7" y1="-1.92798" x2="23.7" y2="14.072" gradientUnits="userSpaceOnUse">
            <stop offset="0.28125" stop-color="#A4C263"/>
            <stop offset="1" stop-color="#93B44D"/>
        </linearGradient>
        <linearGradient id="paint4_linear_5_13" x1="23.7" y1="-1.92798" x2="23.7" y2="14.072" gradientUnits="userSpaceOnUse">
            <stop offset="0.28125" stop-color="#A4C263"/>
            <stop offset="1" stop-color="#93B44D"/>
        </linearGradient>
        <linearGradient id="paint5_linear_5_13" x1="23.7" y1="-1.92798" x2="23.7" y2="14.072" gradientUnits="userSpaceOnUse">
            <stop offset="0.28125" stop-color="#A4C263"/>
            <stop offset="1" stop-color="#93B44D"/>
        </linearGradient>
        <linearGradient id="paint6_linear_5_13" x1="23.7" y1="-1.92798" x2="23.7" y2="14.072" gradientUnits="userSpaceOnUse">
            <stop offset="0.28125" stop-color="#A4C263"/>
            <stop offset="1" stop-color="#93B44D"/>
        </linearGradient>
    </defs>
</svg>
